<svg width="745" height="631" viewBox="0 0 745 631" fill="none" xmlns="http://www.w3.org/2000/svg">
<path d="M744.674 315.5C744.674 459.98 617.554 581.77 444.094 619.16C415.923 625.217 387.304 628.956 358.524 630.34C357.124 630.41 355.724 630.48 354.314 630.53C346.824 630.84 339.277 630.997 331.674 631C318.454 631 305.391 630.53 292.484 629.59C285.324 629.08 278.223 628.43 271.183 627.64C202.714 619.96 139.704 599.45 86.4837 569.4C79.8338 565.65 73.3405 561.75 67.0038 557.7C55.4004 550.314 44.1979 542.316 33.4437 533.74C-37.6461 477.08 21.6239 356.14 58.6737 280C158.674 74.5 103.584 0 331.674 0C559.764 0 744.674 141.25 744.674 315.5Z" fill="#E1C5FE"/>
</svg>
